<mxfile host="65bd71144e" pages="2">
    <diagram id="a7mmYTxC5d87JoJj9rpy" name="Page-1">
        <mxGraphModel dx="1778" dy="1504" grid="1" gridSize="10" guides="1" tooltips="1" connect="1" arrows="1" fold="1" page="0" pageScale="1" pageWidth="850" pageHeight="1100" math="0" shadow="0">
            <root>
                <mxCell id="-1W4qPaMkkJz1EbxG2FB-0"/>
                <mxCell id="-1W4qPaMkkJz1EbxG2FB-1" parent="-1W4qPaMkkJz1EbxG2FB-0"/>
                <mxCell id="G8z4CCHTlaPzUtSR3vQa-8" value="&lt;span style=&quot;color: rgba(0 , 0 , 0 , 0) ; font-family: monospace ; font-size: 0px&quot;&gt;ww&lt;/span&gt;" style="rounded=0;whiteSpace=wrap;html=1;fontSize=18;sketch=1;" parent="-1W4qPaMkkJz1EbxG2FB-1" vertex="1">
                    <mxGeometry x="-280" y="-700" width="800" height="500" as="geometry"/>
                </mxCell>
                <mxCell id="G8z4CCHTlaPzUtSR3vQa-10" value="&lt;font style=&quot;font-size: 18px&quot;&gt;Add category&lt;/font&gt;" style="rounded=0;whiteSpace=wrap;html=1;" parent="-1W4qPaMkkJz1EbxG2FB-1" vertex="1">
                    <mxGeometry x="80" y="-650" width="200" height="40" as="geometry"/>
                </mxCell>
                <mxCell id="G8z4CCHTlaPzUtSR3vQa-11" value="&lt;font style=&quot;font-size: 18px&quot;&gt;Save&amp;nbsp;&lt;/font&gt;" style="rounded=0;whiteSpace=wrap;html=1;fillColor=#60a917;fontColor=#ffffff;strokeColor=#2D7600;" parent="-1W4qPaMkkJz1EbxG2FB-1" vertex="1">
                    <mxGeometry x="320" y="-650" width="110" height="40" as="geometry"/>
                </mxCell>
                <mxCell id="G8z4CCHTlaPzUtSR3vQa-12" value="&lt;span style=&quot;font-size: 18px&quot;&gt;Mouse&lt;/span&gt;" style="rounded=0;whiteSpace=wrap;html=1;fillColor=#1ba1e2;fontColor=#ffffff;strokeColor=#006EAF;" parent="-1W4qPaMkkJz1EbxG2FB-1" vertex="1">
                    <mxGeometry x="-230" y="-650" width="200" height="40" as="geometry"/>
                </mxCell>
                <mxCell id="G8z4CCHTlaPzUtSR3vQa-13" value="&lt;span style=&quot;font-size: 18px&quot;&gt;Keyboard&lt;/span&gt;" style="rounded=0;whiteSpace=wrap;html=1;" parent="-1W4qPaMkkJz1EbxG2FB-1" vertex="1">
                    <mxGeometry x="-230" y="-610" width="200" height="40" as="geometry"/>
                </mxCell>
                <mxCell id="G8z4CCHTlaPzUtSR3vQa-14" value="&lt;span style=&quot;font-size: 18px&quot;&gt;Monitor&lt;/span&gt;" style="rounded=0;whiteSpace=wrap;html=1;" parent="-1W4qPaMkkJz1EbxG2FB-1" vertex="1">
                    <mxGeometry x="-230" y="-570" width="200" height="40" as="geometry"/>
                </mxCell>
                <mxCell id="G8z4CCHTlaPzUtSR3vQa-15" value="&lt;span style=&quot;font-size: 18px&quot;&gt;Laptop&lt;/span&gt;" style="rounded=0;whiteSpace=wrap;html=1;" parent="-1W4qPaMkkJz1EbxG2FB-1" vertex="1">
                    <mxGeometry x="-230" y="-530" width="200" height="40" as="geometry"/>
                </mxCell>
                <mxCell id="G8z4CCHTlaPzUtSR3vQa-16" value="&lt;span style=&quot;font-size: 18px&quot;&gt;Desktop&lt;/span&gt;" style="rounded=0;whiteSpace=wrap;html=1;" parent="-1W4qPaMkkJz1EbxG2FB-1" vertex="1">
                    <mxGeometry x="-230" y="-490" width="200" height="40" as="geometry"/>
                </mxCell>
                <mxCell id="G8z4CCHTlaPzUtSR3vQa-17" value="&lt;span style=&quot;color: rgba(0 , 0 , 0 , 0) ; font-family: monospace ; font-size: 0px&quot;&gt;%3CmxGraphModel%3E%3Croot%3E%3CmxCell%20id%3D%220%22%2F%3E%3CmxCell%20id%3D%221%22%20parent%3D%220%22%2F%3E%3CmxCell%20id%3D%222%22%20value%3D%22%26lt%3Bfont%20style%3D%26quot%3Bfont-size%3A%2018px%26quot%3B%26gt%3BAdd%20category%26lt%3B%2Ffont%26gt%3B%22%20style%3D%22rounded%3D0%3BwhiteSpace%3Dwrap%3Bhtml%3D1%3B%22%20vertex%3D%221%22%20parent%3D%221%22%3E%3CmxGeometry%20x%3D%22-40%22%20y%3D%22-600%22%20width%3D%22200%22%20height%3D%2240%22%20as%3D%22geometry%22%2F%3E%3C%2FmxCell%3E%3CmxCell%20id%3D%223%22%20value%3D%22%26lt%3Bfont%20style%3D%26quot%3Bfont-size%3A%2018px%26quot%3B%26gt%3BAdd%26amp%3Bnbsp%3B%26lt%3B%2Ffont%26gt%3B%22%20style%3D%22rounded%3D0%3BwhiteSpace%3Dwrap%3Bhtml%3D1%3BfillColor%3D%2360a917%3BfontColor%3D%23ffffff%3BstrokeColor%3D%232D7600%3B%22%20vertex%3D%221%22%20parent%3D%221%22%3E%3CmxGeometry%20x%3D%22240%22%20y%3D%22-600%22%20width%3D%22110%22%20height%3D%2240%22%20as%3D%22geometry%22%2F%3E%3C%2FmxCell%3E%3CmxCell%20id%3D%224%22%20value%3D%22%26lt%3Bspan%20style%3D%26quot%3Bfont-size%3A%2018px%26quot%3B%26gt%3BMouse%26lt%3B%2Fspan%26gt%3B%22%20style%3D%22rounded%3D0%3BwhiteSpace%3Dwrap%3Bhtml%3D1%3B%22%20vertex%3D%221%22%20parent%3D%221%22%3E%3CmxGeometry%20x%3D%22-400%22%20y%3D%22-600%22%20width%3D%22200%22%20height%3D%2240%22%20as%3D%22geometry%22%2F%3E%3C%2FmxCell%3E%3CmxCell%20id%3D%225%22%20value%3D%22%26lt%3Bspan%20style%3D%26quot%3Bfont-size%3A%2018px%26quot%3B%26gt%3BKeyboard%26lt%3B%2Fspan%26gt%3B%22%20style%3D%22rounded%3D0%3BwhiteSpace%3Dwrap%3Bhtml%3D1%3B%22%20vertex%3D%221%22%20parent%3D%221%22%3E%3CmxGeometry%20x%3D%22-400%22%20y%3D%22-560%22%20width%3D%22200%22%20height%3D%2240%22%20as%3D%22geometry%22%2F%3E%3C%2FmxCell%3E%3CmxCell%20id%3D%226%22%20value%3D%22%26lt%3Bspan%20style%3D%26quot%3Bfont-size%3A%2018px%26quot%3B%26gt%3BMonitor%26lt%3B%2Fspan%26gt%3B%22%20style%3D%22rounded%3D0%3BwhiteSpace%3Dwrap%3Bhtml%3D1%3B%22%20vertex%3D%221%22%20parent%3D%221%22%3E%3CmxGeometry%20x%3D%22-400%22%20y%3D%22-520%22%20width%3D%22200%22%20height%3D%2240%22%20as%3D%22geometry%22%2F%3E%3C%2FmxCell%3E%3CmxCell%20id%3D%227%22%20value%3D%22%26lt%3Bspan%20style%3D%26quot%3Bfont-size%3A%2018px%26quot%3B%26gt%3BLaptop%26lt%3B%2Fspan%26gt%3B%22%20style%3D%22rounded%3D0%3BwhiteSpace%3Dwrap%3Bhtml%3D1%3B%22%20vertex%3D%221%22%20parent%3D%221%22%3E%3CmxGeometry%20x%3D%22-400%22%20y%3D%22-480%22%20width%3D%22200%22%20height%3D%2240%22%20as%3D%22geometry%22%2F%3E%3C%2FmxCell%3E%3CmxCell%20id%3D%228%22%20value%3D%22%26lt%3Bspan%20style%3D%26quot%3Bfont-size%3A%2018px%26quot%3B%26gt%3BDesktop%26lt%3B%2Fspan%26gt%3B%22%20style%3D%22rounded%3D0%3BwhiteSpace%3Dwrap%3Bhtml%3D1%3B%22%20vertex%3D%221%22%20parent%3D%221%22%3E%3CmxGeometry%20x%3D%22-400%22%20y%3D%22-440%22%20width%3D%22200%22%20height%3D%2240%22%20as%3D%22geometry%22%2F%3E%3C%2FmxCell%3E%3C%2Froot%3E%3C%2FmxGraphModel%3E&lt;/span&gt;" style="rounded=0;whiteSpace=wrap;html=1;fontSize=18;" parent="-1W4qPaMkkJz1EbxG2FB-1" vertex="1">
                    <mxGeometry x="-280" y="-120" width="800" height="440" as="geometry"/>
                </mxCell>
                <mxCell id="G8z4CCHTlaPzUtSR3vQa-36" value="&lt;span style=&quot;font-size: 18px&quot;&gt;name&lt;/span&gt;" style="rounded=0;whiteSpace=wrap;html=1;" parent="-1W4qPaMkkJz1EbxG2FB-1" vertex="1">
                    <mxGeometry x="-250" y="-10" width="200" height="40" as="geometry"/>
                </mxCell>
                <mxCell id="G8z4CCHTlaPzUtSR3vQa-37" value="&lt;span style=&quot;font-size: 18px&quot;&gt;brand&lt;/span&gt;" style="rounded=0;whiteSpace=wrap;html=1;" parent="-1W4qPaMkkJz1EbxG2FB-1" vertex="1">
                    <mxGeometry x="-50" y="-10" width="200" height="40" as="geometry"/>
                </mxCell>
                <mxCell id="G8z4CCHTlaPzUtSR3vQa-38" value="&lt;span style=&quot;font-size: 18px&quot;&gt;price&lt;/span&gt;" style="rounded=0;whiteSpace=wrap;html=1;" parent="-1W4qPaMkkJz1EbxG2FB-1" vertex="1">
                    <mxGeometry x="-250" y="30" width="200" height="40" as="geometry"/>
                </mxCell>
                <mxCell id="G8z4CCHTlaPzUtSR3vQa-39" value="&lt;span style=&quot;font-size: 18px&quot;&gt;location&lt;/span&gt;" style="rounded=0;whiteSpace=wrap;html=1;" parent="-1W4qPaMkkJz1EbxG2FB-1" vertex="1">
                    <mxGeometry x="-50" y="30" width="200" height="40" as="geometry"/>
                </mxCell>
                <mxCell id="G8z4CCHTlaPzUtSR3vQa-40" value="&lt;span style=&quot;font-size: 18px&quot;&gt;quantity&lt;/span&gt;" style="rounded=0;whiteSpace=wrap;html=1;" parent="-1W4qPaMkkJz1EbxG2FB-1" vertex="1">
                    <mxGeometry x="150" y="-10" width="200" height="40" as="geometry"/>
                </mxCell>
                <mxCell id="G8z4CCHTlaPzUtSR3vQa-41" value="&lt;span style=&quot;font-size: 18px&quot;&gt;Save&lt;/span&gt;" style="rounded=0;whiteSpace=wrap;html=1;fillColor=#60a917;fontColor=#ffffff;strokeColor=#2D7600;" parent="-1W4qPaMkkJz1EbxG2FB-1" vertex="1">
                    <mxGeometry x="360" y="220" width="110" height="40" as="geometry"/>
                </mxCell>
                <mxCell id="G8z4CCHTlaPzUtSR3vQa-42" value="&lt;font color=&quot;rgba(0, 0, 0, 0)&quot; face=&quot;monospace&quot;&gt;&lt;span style=&quot;font-size: 0px&quot;&gt;ddddd&lt;/span&gt;&lt;/font&gt;" style="rounded=0;whiteSpace=wrap;html=1;fontSize=18;sketch=1;" parent="-1W4qPaMkkJz1EbxG2FB-1" vertex="1">
                    <mxGeometry x="-140" y="920" width="670" height="280" as="geometry"/>
                </mxCell>
                <mxCell id="G8z4CCHTlaPzUtSR3vQa-51" value="&lt;span style=&quot;font-size: 18px&quot;&gt;logitech&lt;/span&gt;" style="rounded=0;whiteSpace=wrap;html=1;" parent="-1W4qPaMkkJz1EbxG2FB-1" vertex="1">
                    <mxGeometry x="-80" y="680" width="200" height="40" as="geometry"/>
                </mxCell>
                <mxCell id="G8z4CCHTlaPzUtSR3vQa-52" value="&lt;span style=&quot;font-size: 18px&quot;&gt;apple&lt;/span&gt;" style="rounded=0;whiteSpace=wrap;html=1;fillColor=#60a917;fontColor=#ffffff;strokeColor=#FFFFFF;" parent="-1W4qPaMkkJz1EbxG2FB-1" vertex="1">
                    <mxGeometry x="-80" y="720" width="200" height="40" as="geometry"/>
                </mxCell>
                <mxCell id="G8z4CCHTlaPzUtSR3vQa-53" value="&lt;span style=&quot;font-size: 18px&quot;&gt;samsung&lt;/span&gt;" style="rounded=0;whiteSpace=wrap;html=1;" parent="-1W4qPaMkkJz1EbxG2FB-1" vertex="1">
                    <mxGeometry x="-80" y="760" width="200" height="40" as="geometry"/>
                </mxCell>
                <mxCell id="G8z4CCHTlaPzUtSR3vQa-54" value="&lt;span style=&quot;font-size: 18px&quot;&gt;microsoft&lt;/span&gt;" style="rounded=0;whiteSpace=wrap;html=1;" parent="-1W4qPaMkkJz1EbxG2FB-1" vertex="1">
                    <mxGeometry x="-80" y="800" width="200" height="40" as="geometry"/>
                </mxCell>
                <mxCell id="G8z4CCHTlaPzUtSR3vQa-55" value="&lt;span style=&quot;font-size: 18px&quot;&gt;name&lt;/span&gt;" style="rounded=0;whiteSpace=wrap;html=1;" parent="-1W4qPaMkkJz1EbxG2FB-1" vertex="1">
                    <mxGeometry x="150" y="730" width="120" height="40" as="geometry"/>
                </mxCell>
                <mxCell id="G8z4CCHTlaPzUtSR3vQa-56" value="&lt;span style=&quot;font-size: 18px&quot;&gt;quantity&lt;/span&gt;" style="rounded=0;whiteSpace=wrap;html=1;" parent="-1W4qPaMkkJz1EbxG2FB-1" vertex="1">
                    <mxGeometry x="270" y="730" width="140" height="40" as="geometry"/>
                </mxCell>
                <mxCell id="G8z4CCHTlaPzUtSR3vQa-57" value="&lt;span style=&quot;font-size: 18px&quot;&gt;location&lt;/span&gt;" style="rounded=0;whiteSpace=wrap;html=1;" parent="-1W4qPaMkkJz1EbxG2FB-1" vertex="1">
                    <mxGeometry x="530" y="730" width="120" height="40" as="geometry"/>
                </mxCell>
                <mxCell id="G8z4CCHTlaPzUtSR3vQa-58" value="&lt;span style=&quot;font-size: 18px&quot;&gt;price&lt;/span&gt;" style="rounded=0;whiteSpace=wrap;html=1;" parent="-1W4qPaMkkJz1EbxG2FB-1" vertex="1">
                    <mxGeometry x="410" y="730" width="120" height="40" as="geometry"/>
                </mxCell>
                <mxCell id="G8z4CCHTlaPzUtSR3vQa-59" value="&lt;span style=&quot;font-size: 18px&quot;&gt;magic mouse&lt;/span&gt;" style="rounded=0;whiteSpace=wrap;html=1;" parent="-1W4qPaMkkJz1EbxG2FB-1" vertex="1">
                    <mxGeometry x="150" y="770" width="120" height="70" as="geometry"/>
                </mxCell>
                <mxCell id="G8z4CCHTlaPzUtSR3vQa-60" value="&lt;span style=&quot;font-size: 18px&quot;&gt;4&lt;/span&gt;" style="rounded=0;whiteSpace=wrap;html=1;" parent="-1W4qPaMkkJz1EbxG2FB-1" vertex="1">
                    <mxGeometry x="270" y="770" width="140" height="70" as="geometry"/>
                </mxCell>
                <mxCell id="G8z4CCHTlaPzUtSR3vQa-61" value="&lt;span style=&quot;font-size: 18px&quot;&gt;F4-21&lt;/span&gt;" style="rounded=0;whiteSpace=wrap;html=1;" parent="-1W4qPaMkkJz1EbxG2FB-1" vertex="1">
                    <mxGeometry x="530" y="770" width="120" height="70" as="geometry"/>
                </mxCell>
                <mxCell id="G8z4CCHTlaPzUtSR3vQa-62" value="&lt;span style=&quot;font-size: 18px&quot;&gt;120&lt;/span&gt;" style="rounded=0;whiteSpace=wrap;html=1;" parent="-1W4qPaMkkJz1EbxG2FB-1" vertex="1">
                    <mxGeometry x="410" y="770" width="120" height="70" as="geometry"/>
                </mxCell>
                <mxCell id="7" value="" style="edgeStyle=orthogonalEdgeStyle;rounded=0;html=1;entryX=0;entryY=0.5;entryDx=0;entryDy=0;" parent="-1W4qPaMkkJz1EbxG2FB-1" source="0" target="G8z4CCHTlaPzUtSR3vQa-52" edge="1">
                    <mxGeometry relative="1" as="geometry"/>
                </mxCell>
                <mxCell id="0" value="&lt;span style=&quot;font-size: 18px&quot;&gt;Mouse&lt;/span&gt;" style="rounded=0;whiteSpace=wrap;html=1;fillColor=#60a917;fontColor=#ffffff;strokeColor=#FFFFFF;" parent="-1W4qPaMkkJz1EbxG2FB-1" vertex="1">
                    <mxGeometry x="-320" y="640" width="200" height="40" as="geometry"/>
                </mxCell>
                <mxCell id="1" value="&lt;span style=&quot;font-size: 18px&quot;&gt;Keyboard&lt;/span&gt;" style="rounded=0;whiteSpace=wrap;html=1;" parent="-1W4qPaMkkJz1EbxG2FB-1" vertex="1">
                    <mxGeometry x="-320" y="680" width="200" height="40" as="geometry"/>
                </mxCell>
                <mxCell id="2" value="&lt;span style=&quot;font-size: 18px&quot;&gt;Monitor&lt;/span&gt;" style="rounded=0;whiteSpace=wrap;html=1;" parent="-1W4qPaMkkJz1EbxG2FB-1" vertex="1">
                    <mxGeometry x="-320" y="720" width="200" height="40" as="geometry"/>
                </mxCell>
                <mxCell id="3" value="&lt;span style=&quot;font-size: 18px&quot;&gt;Laptop&lt;/span&gt;" style="rounded=0;whiteSpace=wrap;html=1;" parent="-1W4qPaMkkJz1EbxG2FB-1" vertex="1">
                    <mxGeometry x="-320" y="760" width="200" height="40" as="geometry"/>
                </mxCell>
                <mxCell id="4" value="&lt;span style=&quot;font-size: 18px&quot;&gt;Desktop&lt;/span&gt;" style="rounded=0;whiteSpace=wrap;html=1;" parent="-1W4qPaMkkJz1EbxG2FB-1" vertex="1">
                    <mxGeometry x="-320" y="800" width="200" height="40" as="geometry"/>
                </mxCell>
                <mxCell id="8" value="&lt;font style=&quot;font-size: 18px&quot;&gt;paymentType&lt;/font&gt;" style="rounded=0;whiteSpace=wrap;html=1;" parent="-1W4qPaMkkJz1EbxG2FB-1" vertex="1">
                    <mxGeometry x="-100" y="1040" width="170" height="40" as="geometry"/>
                </mxCell>
                <mxCell id="10" value="&lt;span style=&quot;font-size: 18px&quot;&gt;quantity&lt;/span&gt;" style="rounded=0;whiteSpace=wrap;html=1;" parent="-1W4qPaMkkJz1EbxG2FB-1" vertex="1">
                    <mxGeometry x="100" y="1040" width="170" height="40" as="geometry"/>
                </mxCell>
                <mxCell id="11" value="&lt;span style=&quot;font-size: 18px&quot;&gt;cost&lt;/span&gt;" style="rounded=0;whiteSpace=wrap;html=1;" parent="-1W4qPaMkkJz1EbxG2FB-1" vertex="1">
                    <mxGeometry x="290" y="1040" width="170" height="40" as="geometry"/>
                </mxCell>
                <mxCell id="12" value="&lt;span style=&quot;font-size: 18px&quot;&gt;name&lt;/span&gt;" style="rounded=0;whiteSpace=wrap;html=1;" vertex="1" parent="-1W4qPaMkkJz1EbxG2FB-1">
                    <mxGeometry x="-180" y="150" width="120" height="40" as="geometry"/>
                </mxCell>
                <mxCell id="13" value="&lt;span style=&quot;font-size: 18px&quot;&gt;quantity&lt;/span&gt;" style="rounded=0;whiteSpace=wrap;html=1;" vertex="1" parent="-1W4qPaMkkJz1EbxG2FB-1">
                    <mxGeometry x="-60" y="150" width="140" height="40" as="geometry"/>
                </mxCell>
                <mxCell id="14" value="&lt;span style=&quot;font-size: 18px&quot;&gt;location&lt;/span&gt;" style="rounded=0;whiteSpace=wrap;html=1;" vertex="1" parent="-1W4qPaMkkJz1EbxG2FB-1">
                    <mxGeometry x="200" y="150" width="120" height="40" as="geometry"/>
                </mxCell>
                <mxCell id="15" value="&lt;span style=&quot;font-size: 18px&quot;&gt;price&lt;/span&gt;" style="rounded=0;whiteSpace=wrap;html=1;" vertex="1" parent="-1W4qPaMkkJz1EbxG2FB-1">
                    <mxGeometry x="80" y="150" width="120" height="40" as="geometry"/>
                </mxCell>
                <mxCell id="16" value="&lt;span style=&quot;font-size: 18px&quot;&gt;magic mouse&lt;/span&gt;" style="rounded=0;whiteSpace=wrap;html=1;" vertex="1" parent="-1W4qPaMkkJz1EbxG2FB-1">
                    <mxGeometry x="-180" y="190" width="120" height="70" as="geometry"/>
                </mxCell>
                <mxCell id="17" value="&lt;span style=&quot;font-size: 18px&quot;&gt;4&lt;/span&gt;" style="rounded=0;whiteSpace=wrap;html=1;" vertex="1" parent="-1W4qPaMkkJz1EbxG2FB-1">
                    <mxGeometry x="-60" y="190" width="140" height="70" as="geometry"/>
                </mxCell>
                <mxCell id="18" value="&lt;span style=&quot;font-size: 18px&quot;&gt;F4-21&lt;/span&gt;" style="rounded=0;whiteSpace=wrap;html=1;" vertex="1" parent="-1W4qPaMkkJz1EbxG2FB-1">
                    <mxGeometry x="200" y="190" width="120" height="70" as="geometry"/>
                </mxCell>
                <mxCell id="19" value="&lt;span style=&quot;font-size: 18px&quot;&gt;120&lt;/span&gt;" style="rounded=0;whiteSpace=wrap;html=1;" vertex="1" parent="-1W4qPaMkkJz1EbxG2FB-1">
                    <mxGeometry x="80" y="190" width="120" height="70" as="geometry"/>
                </mxCell>
            </root>
        </mxGraphModel>
    </diagram>
</mxfile>